<?xml version="1.0" encoding="UTF-8" standalone="no"?>
<!-- Created with Inkscape (http://www.inkscape.org/) -->

<svg
   xmlns:dc="http://purl.org/dc/elements/1.1/"
   xmlns:cc="http://creativecommons.org/ns#"
   xmlns:rdf="http://www.w3.org/1999/02/22-rdf-syntax-ns#"
   xmlns:svg="http://www.w3.org/2000/svg"
   xmlns="http://www.w3.org/2000/svg"
   xmlns:sodipodi="http://sodipodi.sourceforge.net/DTD/sodipodi-0.dtd"
   xmlns:inkscape="http://www.inkscape.org/namespaces/inkscape"
   width="744.09448819"
   height="1052.3622047"
   id="svg4053"
   version="1.1"
   inkscape:version="0.48.4 r9939"
   sodipodi:docname="New document 2">
  <defs
     id="defs4055" />
  <sodipodi:namedview
     id="base"
     pagecolor="#ffffff"
     bordercolor="#666666"
     borderopacity="1.0"
     inkscape:pageopacity="0.0"
     inkscape:pageshadow="2"
     inkscape:zoom="0.7"
     inkscape:cx="140.33725"
     inkscape:cy="565.27984"
     inkscape:document-units="px"
     inkscape:current-layer="layer1"
     showgrid="true"
     inkscape:snap-grids="false"
     inkscape:window-width="1920"
     inkscape:window-height="1026"
     inkscape:window-x="0"
     inkscape:window-y="25"
     inkscape:window-maximized="1">
    <inkscape:grid
       type="xygrid"
       id="grid4573" />
  </sodipodi:namedview>
  <metadata
     id="metadata4058">
    <rdf:RDF>
      <cc:Work
         rdf:about="">
        <dc:format>image/svg+xml</dc:format>
        <dc:type
           rdf:resource="http://purl.org/dc/dcmitype/StillImage" />
        <dc:title></dc:title>
      </cc:Work>
    </rdf:RDF>
  </metadata>
  <g
     inkscape:label="Layer 1"
     inkscape:groupmode="layer"
     id="layer1">
    <path
       sodipodi:type="arc"
       style="fill:#477700;fill-opacity:1;stroke:none;"
       id="path4061"
       sodipodi:cx="375"
       sodipodi:cy="550.2193"
       sodipodi:rx="225"
       sodipodi:ry="230.71428"
       d="m 600,550.2193 a 225,230.71428 0 1 1 -450,0 225,230.71428 0 1 1 450,0 z"
       transform="matrix(0.98095238,0,0,0.97213622,12.857143,-6.8116691)" />
    <path
       sodipodi:type="arc"
       style="fill:#477700;fill-opacity:1;stroke:none"
       id="path4571"
       sodipodi:cx="377.85715"
       sodipodi:cy="895.2193"
       sodipodi:rx="59.285713"
       sodipodi:ry="60"
       d="m 437.14286,895.2193 a 59.285713,60 0 1 1 -118.57143,0 59.285713,60 0 1 1 118.57143,0 z"
       transform="translate(2.8571429,-127.14286)" />
    <a
       id="a4597"
       transform="matrix(0.94876977,0,0,0.78248413,27.147438,164.02196)">
      <path
         inkscape:connector-curvature="0"
         id="path4577"
         d="M 334.40909,832.48556 195.59091,649.38166"
         style="fill:none;stroke:#000000;stroke-width:0.75323933px;stroke-linecap:butt;stroke-linejoin:miter;stroke-opacity:1" />
    </a>
    <path
       style="fill:none;stroke:#000000;stroke-width:1.03482938px;stroke-linecap:butt;stroke-linejoin:miter;stroke-opacity:1"
       d="M 420.01741,812.34477 548.55401,672.37959"
       id="path4602"
       inkscape:connector-curvature="0" />
    <path
       style="fill:#477700;fill-opacity:1;stroke:none"
       d="m 287.06621,751.21547 c -20.06454,-21.83751 -36.31532,-39.87245 -36.11283,-40.07765 0.20249,-0.20521 5.38354,2.93366 11.51345,6.97526 13.81541,9.10884 33.21667,18.33644 49.71159,23.64377 11.05291,3.55633 12.45758,4.38171 11.73764,6.89693 -3.66741,12.81263 -3.82644,25.21758 -0.46364,36.16714 0.80042,2.60622 1.14918,5.04469 0.77504,5.41883 -0.37414,0.37415 -17.0967,-17.18678 -37.16125,-39.02428 l 0,0 z"
       id="path4604"
       inkscape:connector-curvature="0" />
    <path
       style="fill:#477700;fill-opacity:1;stroke:none"
       d="m 436.067,792.18552 c 0.008,-0.37103 0.97279,-3.83034 2.14285,-7.68736 2.67823,-8.82854 2.73613,-24.08191 0.12435,-32.7602 -1.71482,-5.69791 -1.71563,-6.65561 -0.006,-6.65561 7.01625,0 42.67642,-15.55686 58.23097,-25.40343 5.38651,-3.40986 10.11514,-5.87825 10.50806,-5.48533 0.39292,0.39292 -14.22804,16.98578 -32.49103,36.87301 -39.39764,42.90151 -38.52912,41.97414 -38.50951,41.11892 z"
       id="path4606"
       inkscape:connector-curvature="0" />
    <text
       xml:space="preserve"
       style="font-size:40px;font-style:normal;font-variant:normal;font-weight:normal;font-stretch:normal;line-height:125%;letter-spacing:0px;word-spacing:0px;fill:#000000;fill-opacity:1;stroke:none;font-family:LKLUG;-inkscape-font-specification:LKLUG"
       x="272.85715"
       y="470.93362"
       id="text4612"
       sodipodi:linespacing="125%"><tspan
         sodipodi:role="line"
         id="tspan4614"></tspan></text>
  </g>
</svg>
